<svg xmlns="http://www.w3.org/2000/svg" xmlns:xlink="http://www.w3.org/1999/xlink" viewBox="0 0 2164.79 2430.37"><defs><style>.cls-1{isolation:isolate;}.cls-2{fill:#fff;}.cls-3{opacity:0.35;}.cls-4{fill:#000072;}.cls-5{fill:#00cfff;}.cls-6{opacity:0.5;}.cls-7,.cls-8{mix-blend-mode:screen;}.cls-7{fill:url(#radial-gradient);}.cls-8{fill:url(#radial-gradient-2);}</style><radialGradient id="radial-gradient" cx="1142.82" cy="-14446.89" r="388.63" gradientTransform="matrix(0, 0.97, -0.8, 0, -10787.13, -212.95)" gradientUnits="userSpaceOnUse"><stop offset="0" stop-color="#007bbf"/><stop offset="0.22" stop-color="#005f93"/><stop offset="0.76" stop-color="#001b2a"/><stop offset="1"/></radialGradient><radialGradient id="radial-gradient-2" cx="6889.44" cy="-15451.95" r="388.63" gradientTransform="matrix(-0.97, 0, 0, 0.8, 8020.81, 13192.68)" xlink:href="#radial-gradient"/></defs><g class="cls-1"><g id="Layer_1" data-name="Layer 1"><path class="cls-2" d="M1622.86,1393.48S1780.39,1192.66,1971,1147c104-24.94,196.06,72.51,167.15,175.5-37,131.94-171.68,303.53-492.32,501Z"/><g class="cls-3"><path class="cls-4" d="M1654.58,1461.46l-5.27-98.8c-17,18.78-26.45,30.82-26.45,30.82l22.93,430c320.64-197.5,455.28-369.09,492.32-501a140.06,140.06,0,0,0,1-72.93c-40.46,89.14-123.84,193.13-271.94,308.59C1783.21,1623.6,1660.25,1567.82,1654.58,1461.46Z"/></g><path class="cls-4" d="M1645.79,1844.77a21.28,21.28,0,0,1-21.25-20.15l-22.93-430a21.3,21.3,0,0,1,4.5-14.27c6.62-8.44,164.36-207.18,359.89-254.07,55.81-13.38,113.05,3.44,153.06,45,40.52,42.11,55.3,100.78,39.54,156.93-44.06,156.94-208,324.8-501.3,513.18A21.35,21.35,0,0,1,1645.79,1844.77Zm-1.24-444.2,20.53,385c264.76-174.21,412.93-327.78,452.54-468.87a119.16,119.16,0,0,0-29.23-115.9c-29.43-30.58-71.49-43-112.47-33.14C1813.15,1206.69,1672.33,1367.26,1644.55,1400.57Z"/><path class="cls-2" d="M517.1,1776.08s-120.22,225.14-300,303.27C119,2122,11.47,2042,22,1935.58c13.55-136.37,116.3-328.75,397.73-579Z"/><g class="cls-3"><path class="cls-4" d="M419.77,1356.61q-24.36,21.66-46.9,42.73l25.87,111.49c44.5,191.78-37.58,392.82-207.1,492.94A396.53,396.53,0,0,1,148,2026.15a136.81,136.81,0,0,1-101.77,3.51c36,52,105.56,78.11,170.94,49.69,179.73-78.13,300-303.27,300-303.27Z"/></g><path class="cls-4" d="M161.59,2112.31a160,160,0,0,1-94.51-31.17c-47.23-34.42-72-89.62-66.21-147.66,16.1-162.21,148.41-356,404.46-592.51a21.29,21.29,0,0,1,35.17,10.83l97.34,419.47a21.31,21.31,0,0,1-2,14.84c-5,9.46-125.84,232.6-310.25,312.76A160.45,160.45,0,0,1,161.59,2112.31Zm245.78-715C176.92,1614.88,57.7,1791.87,43.22,1937.69a119.19,119.19,0,0,0,48.93,109.06c34.3,25,77.85,29.89,116.51,13.08C362.44,1993,473,1810.49,494.52,1772.88Z"/><path class="cls-2" d="M1652.15,1802.72c-70.6,238.45-192.22,396-319.69,500a470.17,470.17,0,0,1-595.71,0c-127.42-104-249.09-261.54-319.64-500-47.45-160.36-36.86-280.17,6.71-369.71,138.54-284.79,610.81-263,610.81-263s473.08-21.81,611.19,263.73C1689.07,1523.19,1699.45,1642.79,1652.15,1802.72Z"/><g class="cls-3"><path class="cls-4" d="M1645.82,1433.71c-127,90.23-319.59,157.31-611.19,157.31-291.39,0-483.77-67.4-610.81-158,138.54-284.79,610.81-263,610.81-263S1507.71,1148.17,1645.82,1433.71Z"/></g><g class="cls-3"><path class="cls-4" d="M1633.29,1410.26c25.31,79.19,26.09,179.52-11.53,306.66-67.1,226.74-182.76,376.52-303.93,475.4a447,447,0,0,1-566.4,0c-121.18-98.88-236.84-248.66-303.93-475.4-37.63-127.14-36.85-227.47-11.54-306.66-53.41,91.68-70.44,218.11-18.85,392.44,70.57,238.47,192.21,396,319.66,500a470.19,470.19,0,0,0,595.72,0c127.44-104,249.09-261.54,319.66-500C1703.73,1628.37,1686.7,1501.94,1633.29,1410.26Z"/></g><path class="cls-4" d="M1592.08,1966.15c-296.08-113.1-583-107.21-771.65-82.36-205,27-341.5,81.65-342.86,82.2l-16-39.44c5.7-2.31,141.9-56.94,351.92-84.78,193.82-25.69,488.85-31.85,793.78,84.62Z"/><path class="cls-4" d="M1034.63,2430.37A493.87,493.87,0,0,1,723.32,2319.2c-153.58-125.32-263.47-297.06-326.62-510.46C341.37,1621.77,358,1470,446,1357.57c173.84-221.89,561.13-210,588.59-208.9,27.36-1.13,414.72-13,588.58,208.9,88.07,112.4,104.67,264.2,49.34,451.17-63.14,213.39-173,385.13-326.61,510.46A493.89,493.89,0,0,1,1034.63,2430.37Zm-20.9-1239.44c-81.67,0-392.79,12.28-534.26,193-79,100.93-93.14,239.8-42,412.76,60.68,205,165.89,369.74,312.71,489.55,164.81,134.47,404,134.48,568.81,0,146.83-119.81,252-284.53,312.71-489.55,51.2-173,37.06-311.91-42-412.85-163.06-208.13-550.23-192.76-554.11-192.59l-1-21-1,21.06C1033.15,1191.21,1026.05,1190.93,1013.73,1190.93Z"/><path class="cls-5" d="M1034.67,2161.82c243.31,0,322-227.57,347.15-358.75a93.79,93.79,0,0,0-78.09-110.32c-124.19-19-269.08-15.45-269.08-15.45s-144.89-3.6-269.08,15.45a93.78,93.78,0,0,0-78.08,110.32c25.15,131.18,103.84,358.75,347.14,358.75"/><g class="cls-3"><path class="cls-4" d="M1034.67,2050.09h0c-215.88,0-302.16-179.15-336.43-311.18a93.13,93.13,0,0,0-10.71,64.16c25.15,131.18,103.84,358.75,347.14,358.75h0c243.31,0,322-227.57,347.15-358.75a93.18,93.18,0,0,0-10.71-64.16C1336.83,1870.94,1250.55,2050.09,1034.67,2050.09Z"/></g><path class="cls-4" d="M1034.67,2183.1v-42.57c226.91,0,301.8-213.94,326.25-341.47a72.5,72.5,0,0,0-60.42-85.27c-120.81-18.54-263.9-15.26-265.32-15.22h-1c-1.43,0-144.53-3.31-265.33,15.22a72.5,72.5,0,0,0-60.41,85.27c24.45,127.53,99.35,341.47,326.25,341.47v42.57c-113.92,0-205.64-46.75-272.61-139-56.14-77.3-82.89-171.58-95.44-237.07a115,115,0,0,1,95.75-135.35c122.12-18.73,261.13-16,272.31-15.71,11.2-.26,150.2-3,272.31,15.71a115.05,115.05,0,0,1,95.76,135.35c-12.55,65.48-39.3,159.77-95.44,237.07C1240.31,2136.35,1148.59,2183.1,1034.67,2183.1Z"/><path class="cls-2" d="M1034.63,164.07c164,0,292.62,27.36,292.62,27.36L1289,97.94a91.69,91.69,0,0,0-59.86-53.72c-38.23-10.75-102-22.94-194.54-22.94S878.33,33.47,840.09,44.22a91.71,91.71,0,0,0-59.86,53.72L742,191.43S870.66,164.07,1034.63,164.07Z"/><path class="cls-4" d="M1327.24,212.71a21.48,21.48,0,0,1-4.42-.46c-1.26-.27-128.58-26.9-288.18-26.9S747.71,212,746.45,212.25a21.28,21.28,0,0,1-24.12-28.87l38.2-93.49a112.23,112.23,0,0,1,73.79-66.15C872.82,12.91,938.81,0,1034.64,0s161.81,12.91,200.3,23.74a112.19,112.19,0,0,1,73.79,66.15l38.21,93.49a21.27,21.27,0,0,1-19.7,29.33ZM1034.64,42.56c-91,0-152.88,12-188.79,22.15A70.87,70.87,0,0,0,799.93,106L776.4,163.55a1616.42,1616.42,0,0,1,516.46,0L1269.34,106a70.88,70.88,0,0,0-45.93-41.28C1187.5,54.61,1125.6,42.56,1034.64,42.56Z"/><path class="cls-5" d="M88.77,689.44,123,364.36A170,170,0,0,1,178.21,255.9h0c15.59-14.07,40.53-3.78,41.68,17.18l22.79,416.36Z"/><g class="cls-3"><path class="cls-4" d="M218.88,254.78c-1.44-26.36-40.67-25.29-40.67,1.12h0c-2.26,2-4.45,4.15-6.59,6.3l12.93,236.23a85.26,85.26,0,0,1-85.14,89.93h0L88.77,689.44H242.68Z"/></g><path class="cls-4" d="M242.68,710.73H88.77a21.3,21.3,0,0,1-21.16-23.52l34.22-325.08A191,191,0,0,1,164,240.1a46.26,46.26,0,0,1,77.17,31.82l22.8,416.36a21.3,21.3,0,0,1-21.25,22.45ZM112.41,668.16H220.2L198.63,274.25a3.7,3.7,0,0,0-6.17-2.55,148.49,148.49,0,0,0-48.3,94.89Z"/><path class="cls-2" d="M272.89,1208.15a547.88,547.88,0,0,1-83.1,5.91c-85.28-.18-155.54-66.6-162.45-151.61-9.69-119.31-6.17-220.47,0-292.93A164.24,164.24,0,0,1,169.71,620.65c22.26-2.91,42.83-4.79,60.07-6a51.49,51.49,0,0,1,54.92,47.67l35.56,486.41A56,56,0,0,1,272.89,1208.15Z"/><g class="cls-3"><path class="cls-4" d="M320.26,1148.74,309.75,1005a56,56,0,0,1-47.5,54.22,547.88,547.88,0,0,1-83.1,5.91c-75.49-.16-139.17-52.23-157.6-123.15.57,37.55,2.33,77.84,5.79,120.51,6.91,85,77.17,151.43,162.45,151.61a547.88,547.88,0,0,0,83.1-5.91A56,56,0,0,0,320.26,1148.74Z"/></g><path class="cls-4" d="M191.05,1235.34h-1.3c-95.18-.2-175.83-75.38-183.62-171.16C-2,963.52-2,863.78,6.13,767.71c7.35-86.2,75-156.92,160.82-168.16,20-2.61,40.61-4.67,61.36-6.12a73,73,0,0,1,77.62,67.35l35.56,486.41a77.61,77.61,0,0,1-65.41,82A568.2,568.2,0,0,1,191.05,1235.34Zm42.33-599.53c-.7,0-1.4,0-2.11.08-19.9,1.39-39.68,3.36-58.79,5.86C106.32,650.42,54.2,704.91,48.55,771.32c-8,93.73-8,191.1,0,289.41,6,73.89,68.06,131.89,141.28,132h1.21a525.5,525.5,0,0,0,78.64-5.67h0A34.82,34.82,0,0,0,299,1150.3L263.48,663.88A30.3,30.3,0,0,0,233.38,635.81Z"/><path class="cls-5" d="M1980.49,689.44l-34.22-325.08a170,170,0,0,0-55.21-108.46h0c-15.6-14.07-40.53-3.78-41.68,17.18l-22.79,416.36Z"/><g class="cls-3"><path class="cls-4" d="M1850.38,254.78c1.45-26.36,40.68-25.29,40.68,1.12h0c2.26,2,4.44,4.15,6.58,6.3l-12.93,236.23a85.27,85.27,0,0,0,85.14,89.93h0l10.64,101.08h-153.9Z"/></g><path class="cls-4" d="M1980.49,710.73h-153.9a21.29,21.29,0,0,1-21.25-22.45l22.79-416.36a46.26,46.26,0,0,1,77.18-31.82,191,191,0,0,1,62.13,122l34.22,325.09a21.29,21.29,0,0,1-21.17,23.51Zm-131.43-42.57h107.8l-31.75-301.57a148.55,148.55,0,0,0-48.31-94.89,3.7,3.7,0,0,0-6.17,2.55Z"/><path class="cls-2" d="M1796.38,1208.15a547.84,547.84,0,0,0,83.09,5.91c85.29-.18,155.54-66.6,162.45-151.61,9.7-119.31,6.18-220.47,0-292.93a164.25,164.25,0,0,0-142.37-148.87c-22.27-2.91-42.84-4.79-60.08-6a51.5,51.5,0,0,0-54.92,47.67L1749,1148.74A56,56,0,0,0,1796.38,1208.15Z"/><g class="cls-3"><path class="cls-4" d="M1749,1148.74,1759.52,1005a56,56,0,0,0,47.5,54.22,547.84,547.84,0,0,0,83.09,5.91c75.5-.16,139.18-52.23,157.6-123.15-.57,37.55-2.32,77.84-5.79,120.51-6.91,85-77.16,151.43-162.45,151.61a547.84,547.84,0,0,1-83.09-5.91A56,56,0,0,1,1749,1148.74Z"/></g><path class="cls-4" d="M1878.22,1235.34a568.43,568.43,0,0,1-85-6.15,77.61,77.61,0,0,1-65.4-82l35.56-486.41A72.82,72.82,0,0,1,1841,593.43c20.74,1.45,41.38,3.51,61.35,6.12,85.84,11.24,153.47,82,160.81,168.16,8.18,96,8.18,195.77,0,296.47-7.78,95.78-88.43,171-183.61,171.16Zm-42.33-599.53a30.3,30.3,0,0,0-30.1,28.07l-35.56,486.41a34.84,34.84,0,0,0,29.35,36.82h0a525.46,525.46,0,0,0,78.63,5.67h1.22c73.22-.15,135.28-58.15,141.28-132,8-98.35,8-195.72,0-289.41-5.66-66.41-57.77-120.91-123.93-129.57-19.12-2.5-38.9-4.47-58.79-5.86C1837.3,635.84,1836.59,635.81,1835.89,635.81Z"/><path class="cls-2" d="M1034.63,1532.51c890.76,0,856.94-625.89,856.94-625.89,0-820.83-856.94-776.37-856.94-776.37S177.7,85.79,177.7,906.62C177.7,906.62,146.92,1532.51,1034.63,1532.51Z"/><g class="cls-3"><path class="cls-4" d="M1889.38,836.68c-15.06,150.54-122.51,573.46-854.75,573.46S195.12,984.43,180,835.21q-2.23,34.57-2.28,71.41s-30.78,625.89,856.93,625.89c890.76,0,856.94-625.89,856.94-625.89Q1891.57,870.53,1889.38,836.68Z"/></g><path class="cls-4" d="M910.67,1242.39a642,642,0,0,1,247.93,0c620.35,122.12,609.45-290,609.45-290,0-570.48-733.42-536.92-733.42-536.92S301.21,381.87,301.21,952.35C301.21,952.35,290.32,1364.51,910.67,1242.39Z"/><path class="cls-4" d="M1763.76,879.8c-18.19,103.09-113,342.43-605.16,245.55a642,642,0,0,0-247.93,0c-492.13,96.88-587-142.46-605.17-245.55a606.67,606.67,0,0,0-4.29,72.55s-10.89,412.16,609.46,290a642,642,0,0,1,247.93,0c620.35,122.12,609.45-290,609.45-290A604.59,604.59,0,0,0,1763.76,879.8Z"/><g class="cls-6"><path class="cls-2" d="M320.42,994.41c0-555.54,714.21-522.86,714.21-522.86s714.21-32.68,714.21,522.86c0,0,1.2,46.33-20.87,102.84,41.91-74.17,40.08-144.9,40.08-144.9,0-570.48-733.42-536.92-733.42-536.92S301.21,381.87,301.21,952.35c0,0-1.82,70.73,40.09,144.9C319.23,1040.74,320.42,994.41,320.42,994.41Z"/></g><path class="cls-4" d="M700,1286.38c-130.39,0-233.06-31.15-306.59-93.26-114.3-96.55-113.71-231.64-113.52-241C280,802.13,329.34,679,426.64,586c213.67-204.12,581.67-192.93,608-191.87,26.3-1.09,394.31-12.25,608,191.87,97.29,93,146.65,216.13,146.7,366.11.19,9.38.78,144.46-113.51,241-110.08,93-285.47,116.59-521.33,70.15a617.81,617.81,0,0,0-239.71,0h0Q797.33,1286.4,700,1286.38Zm334.6-77.41a662.73,662.73,0,0,1,128.07,12.54c222.14,43.73,385.35,23.39,485.11-60.46,100.43-84.41,99-207,99-208.19,0-.15,0-.36,0-.51,0-138-44.89-250.82-133.42-335.46-203.65-194.69-574-180.36-577.75-180.2-.64,0-1.29,0-1.93,0-3.69-.17-374.1-14.49-577.75,180.2-88.54,84.64-133.43,197.5-133.43,335.46v.56c0,1.18-1.48,123.73,98.95,208.14,99.76,83.85,263,104.19,485.12,60.46h0A662.67,662.67,0,0,1,1034.64,1209Z"/><path class="cls-5" d="M591,966.08A34.42,34.42,0,0,1,558.68,920C577.5,868.08,637.84,828,705.43,822.5c69.16-5.63,128.2,26,162.25,86.78a34.4,34.4,0,0,1-60,33.62c-27.83-49.68-72.51-53.83-96.64-51.84-43.72,3.56-79.54,29.94-87.67,52.34A34.42,34.42,0,0,1,591,966.08Z"/><path class="cls-5" d="M1478.25,966.08a34.42,34.42,0,0,1-32.34-22.68c-8.12-22.4-43.94-48.78-87.66-52.34-24.14-2-68.82,2.15-96.64,51.84a34.4,34.4,0,1,1-60-33.62c34.05-60.78,93.15-92.42,162.25-86.78,67.6,5.51,127.93,45.58,146.74,97.45a34.42,34.42,0,0,1-32.33,46.13Z"/><path class="cls-4" d="M1034.64,1553.79c-321.78,0-561.86-80.81-713.59-240.18C150.11,1134.06,155.77,921.36,156.42,906.15c.09-241.67,73.34-433.7,217.69-570.76,134.81-128,307.54-182.72,428.71-206.09,125-24.11,220-20.88,231.82-20.35,11.79-.53,106.85-3.76,231.81,20.35,121.16,23.37,293.9,78.1,428.7,206.09,144.35,137.05,217.59,329.06,217.7,570.7.73,15.58,7.2,227.52-162.64,406.78C1598.76,1472.73,1358,1553.79,1034.64,1553.79ZM1014,151.17c-81.37,0-398.56,13.6-610.79,215.29C267.69,495.25,199,677,199,906.62l0,1c-.09,2-7.69,208.37,153.48,377.18,143.43,150.21,373,226.38,682.21,226.38,311.22,0,541.57-76.59,684.67-227.63,160.22-169.11,151.12-373.78,151-375.83l0-1.15c0-229.64-68.71-411.37-204.22-540.16-243.92-231.81-626.5-215.14-630.34-215l-1.09.06-1.11-.06C1033,151.48,1026.14,151.17,1014,151.17Z"/><ellipse class="cls-7" cx="712.69" cy="892.72" rx="309.36" ry="376.17" transform="translate(-272.41 1471.04) rotate(-81.81)"/><ellipse class="cls-8" cx="1352.69" cy="892.72" rx="376.17" ry="309.36" transform="translate(-113.33 201.69) rotate(-8.19)"/></g></g></svg>